# 3ds Max Wavefront OBJ Exporter v0.97b - (c)2007 guruware
# File Created: 16.03.2019 13:13:35

mtllib BlackWolf01.mtl

#
# object BWS_obj001
#

v  56.808548 52.180698 -2.499998
v  55.984447 52.641243 -2.499998
v  55.014027 52.452744 -2.499998
v  1.311915 19.411518 -2.499999
v  0.456436 19.082909 -2.499999
v  -0.445672 19.082850 -2.499999
v  -1.301191 19.411356 -2.499999
v  -55.023949 52.456150 -2.499998
v  -55.989964 52.643681 -2.499998
v  -56.810226 52.185135 -2.499998
v  -57.156521 51.264030 -2.499998
v  -57.149239 -16.081415 -2.500001
v  -56.939472 -17.297709 -2.500001
v  -56.345299 -18.360485 -2.500001
v  -55.419041 -19.176212 -2.500001
v  -1.753238 -52.178959 -2.500002
v  -0.615387 -52.615944 -2.500002
v  0.584479 -52.616268 -2.500002
v  1.722578 -52.179932 -2.500002
v  55.425304 -19.196205 -2.500001
v  56.351826 -18.381002 -2.500001
v  56.946144 -17.318512 -2.500001
v  57.155903 -16.102375 -2.500001
v  57.156521 51.255394 -2.499998
v  56.808548 52.180698 2.500002
v  55.984447 52.641243 2.500002
v  55.014027 52.452744 2.500002
v  1.311915 19.411518 2.500001
v  0.456436 19.082909 2.500001
v  -0.445672 19.082850 2.500001
v  -1.301191 19.411356 2.500001
v  -55.023949 52.456150 2.500002
v  -55.989964 52.643681 2.500002
v  -56.810226 52.185135 2.500002
v  -57.156521 51.264030 2.500002
v  -57.149239 -16.081415 2.499999
v  -56.939472 -17.297709 2.499999
v  -56.345299 -18.360485 2.499999
v  -55.419041 -19.176212 2.499999
v  -1.753238 -52.178959 2.499998
v  -0.615387 -52.615944 2.499998
v  0.584479 -52.616268 2.499998
v  1.722578 -52.179932 2.499998
v  55.425304 -19.196205 2.499999
v  56.351826 -18.381002 2.499999
v  56.946144 -17.318512 2.499999
v  57.155903 -16.102375 2.499999
v  57.156521 51.255394 2.500002
v  54.474415 47.802517 -2.499998
v  54.475914 -14.894623 -2.500001
v  54.305885 -15.881886 -2.500001
v  53.824009 -16.744741 -2.500001
v  53.072628 -17.407339 -2.500001
v  1.284859 -49.310413 -2.500002
v  0.466015 -49.625389 -2.500002
v  -0.397605 -49.625725 -2.500002
v  -1.216684 -49.311352 -2.500002
v  -52.225380 -17.940926 -2.500001
v  -52.527992 -17.562265 -2.500001
v  -52.528072 -17.098291 -2.500001
v  -52.225563 -16.719543 -2.500001
v  53.501530 48.346146 -2.499998
v  53.942169 48.431778 -2.499998
v  54.316387 48.222679 -2.499998
v  54.474415 47.802517 2.500002
v  54.475914 -14.894623 2.499999
v  54.305885 -15.881886 2.499999
v  53.824009 -16.744741 2.499999
v  53.072628 -17.407339 2.499999
v  1.284859 -49.310413 2.499998
v  0.466015 -49.625389 2.499998
v  -0.397605 -49.625725 2.499998
v  -1.216684 -49.311352 2.499998
v  -52.225380 -17.940926 2.499999
v  -52.527992 -17.562265 2.499999
v  -52.528072 -17.098291 2.499999
v  -52.225563 -16.719543 2.499999
v  53.501530 48.346146 2.500002
v  53.942169 48.431778 2.500002
v  54.316387 48.222679 2.500002
v  -3.245132 17.230429 -2.499999
v  -3.245253 16.789278 -2.499999
v  -3.532974 16.429249 -2.499999
v  -53.485443 -14.299072 -2.500001
v  -53.939644 -14.387299 -2.500001
v  -54.325386 -14.171793 -2.500001
v  -54.488380 -13.738764 -2.500001
v  -54.510635 47.696182 -2.499998
v  -54.332066 48.171326 -2.499998
v  -53.908920 48.407768 -2.499998
v  -53.410675 48.310822 -2.499998
v  -3.532652 17.590614 -2.499999
v  -3.245132 17.230429 2.500001
v  -3.245253 16.789278 2.500001
v  -3.532974 16.429249 2.500001
v  -53.485443 -14.299072 2.499999
v  -53.939644 -14.387299 2.499999
v  -54.325386 -14.171793 2.499999
v  -54.488380 -13.738764 2.499999
v  -54.510635 47.696182 2.500002
v  -54.332066 48.171326 2.500002
v  -53.908920 48.407768 2.500002
v  -53.410675 48.310822 2.500002
v  -3.532652 17.590614 2.500001
v  55.949917 52.425732 -2.850391
v  56.643089 52.038353 -2.850391
v  56.951546 51.218128 -2.850391
v  56.950928 -16.084827 -2.850394
v  56.750118 -17.249083 -2.850394
v  56.190071 -18.250303 -2.850394
v  55.303078 -19.030727 -2.850394
v  1.631477 -51.995338 -2.850395
v  0.546560 -52.411285 -2.850395
v  -0.577354 -52.410980 -2.850395
v  -1.662032 -51.994415 -2.850395
v  -55.296730 -19.010798 -2.850394
v  -56.183506 -18.229843 -2.850394
v  -56.743443 -17.228302 -2.850394
v  -56.944267 -16.063858 -2.850394
v  -56.951542 51.226784 -2.850391
v  -56.644753 52.042812 -2.850391
v  -55.955406 52.428173 -2.850391
v  -55.099594 52.262035 -2.850391
v  -1.392401 19.226814 -2.850392
v  -0.483667 18.877872 -2.850392
v  0.494456 18.877937 -2.850392
v  1.403147 19.226988 -2.850392
v  55.089695 52.258636 -2.850391
v  54.680889 -14.912142 -2.850394
v  54.679386 47.839790 -2.850391
v  54.481838 48.365032 -2.850391
v  53.976685 48.647293 -2.850391
v  53.425842 48.540245 -2.850391
v  -52.363422 -16.563705 -2.850394
v  -52.733059 -17.026497 -2.850394
v  -52.732952 -17.634123 -2.850394
v  -52.363194 -18.096804 -2.850394
v  -1.307874 -49.495903 -2.850395
v  -0.435552 -49.830711 -2.850395
v  0.504117 -49.830349 -2.850395
v  1.376186 -49.494900 -2.850395
v  53.195057 -17.572664 -2.850394
v  53.985874 -16.875290 -2.850394
v  54.501934 -15.951221 -2.850394
v  -3.040299 16.717411 -2.850392
v  -3.040138 17.302181 -2.850392
v  -3.394744 17.746407 -2.850392
v  -53.334930 48.504902 -2.850391
v  -53.943413 48.623299 -2.850391
v  -54.497543 48.313663 -2.850391
v  -54.715622 47.733391 -2.850391
v  -54.693340 -13.776098 -2.850394
v  -54.490810 -14.314169 -2.850394
v  -53.974159 -14.602808 -2.850394
v  -53.409782 -14.493181 -2.850394
v  -3.395152 16.273380 -2.850392
v  56.643089 52.038353 2.850395
v  55.949917 52.425732 2.850395
v  55.089695 52.258636 2.850395
v  1.403147 19.226988 2.850394
v  0.494456 18.877937 2.850394
v  -0.483667 18.877872 2.850394
v  -1.392401 19.226814 2.850394
v  -55.099594 52.262035 2.850395
v  -55.955406 52.428173 2.850395
v  -56.644753 52.042812 2.850395
v  -56.951542 51.226784 2.850395
v  -56.944267 -16.063858 2.850393
v  -56.743443 -17.228302 2.850393
v  -56.183506 -18.229843 2.850393
v  -55.296730 -19.010798 2.850393
v  -1.662032 -51.994415 2.850391
v  -0.577354 -52.410980 2.850391
v  0.546560 -52.411285 2.850391
v  1.631477 -51.995338 2.850391
v  55.303078 -19.030727 2.850393
v  56.190071 -18.250303 2.850393
v  56.750118 -17.249083 2.850393
v  56.950928 -16.084827 2.850393
v  56.951546 51.218128 2.850395
v  54.679386 47.839790 2.850395
v  54.680889 -14.912142 2.850393
v  54.501934 -15.951221 2.850393
v  53.985874 -16.875290 2.850393
v  53.195057 -17.572664 2.850393
v  1.376186 -49.494900 2.850391
v  0.504117 -49.830349 2.850391
v  -0.435552 -49.830711 2.850391
v  -1.307874 -49.495903 2.850391
v  -52.363194 -18.096804 2.850393
v  -52.732952 -17.634123 2.850393
v  -52.733059 -17.026497 2.850393
v  -52.363422 -16.563705 2.850393
v  53.425842 48.540245 2.850395
v  53.976685 48.647293 2.850395
v  54.481838 48.365032 2.850395
v  -3.040138 17.302181 2.850394
v  -3.040299 16.717411 2.850394
v  -3.395152 16.273380 2.850394
v  -53.409782 -14.493181 2.850393
v  -53.974159 -14.602808 2.850393
v  -54.490810 -14.314169 2.850393
v  -54.693340 -13.776098 2.850393
v  -54.715622 47.733391 2.850395
v  -54.497543 48.313663 2.850395
v  -53.943413 48.623299 2.850395
v  -53.334930 48.504902 2.850395
v  -3.394744 17.746407 2.850394
# 208 vertices

vn 0.731949 0.629698 -0.260252
vn 0.152778 0.953373 -0.260265
vn 0.152778 0.953373 0.260265
vn 0.731949 0.629698 0.260252
vn -0.350963 0.900256 -0.257614
vn -0.350963 0.900256 0.257614
vn -0.427171 0.864015 -0.266464
vn -0.427171 0.864015 0.266464
vn -0.175433 0.945779 -0.273361
vn -0.175433 0.945779 0.273361
vn 0.175314 0.945801 -0.273361
vn 0.175314 0.945801 0.273361
vn 0.427064 0.864068 -0.266465
vn 0.427064 0.864068 0.266464
vn 0.350848 0.900305 -0.257598
vn 0.350848 0.900305 0.257598
vn -0.152875 0.953362 -0.260250
vn -0.152875 0.953362 0.260250
vn -0.732005 0.629628 -0.260265
vn -0.732005 0.629628 0.260265
vn -0.950682 0.172739 -0.257615
vn -0.950682 0.172739 0.257615
vn -0.962405 -0.082434 -0.258806
vn -0.962405 -0.082434 0.258806
vn -0.910837 -0.322488 -0.257638
vn -0.910837 -0.322488 0.257638
vn -0.751764 -0.607021 -0.257637
vn -0.751764 -0.607021 0.257637
vn -0.574283 -0.776671 -0.258807
vn -0.574283 -0.776671 0.258807
vn -0.427991 -0.865977 -0.258666
vn -0.427991 -0.865977 0.258666
vn -0.176287 -0.950029 -0.257621
vn -0.176287 -0.950029 0.257621
vn 0.175771 -0.950128 -0.257605
vn 0.175772 -0.950128 0.257605
vn 0.427490 -0.866225 -0.258664
vn 0.427491 -0.866225 0.258664
vn 0.573887 -0.776959 -0.258820
vn 0.573887 -0.776960 0.258820
vn 0.751548 -0.607281 -0.257653
vn 0.751548 -0.607281 0.257653
vn 0.910799 -0.322584 -0.257653
vn 0.910799 -0.322584 0.257653
vn 0.962409 -0.082394 -0.258806
vn 0.962409 -0.082394 0.258806
vn 0.950667 0.172842 -0.257600
vn 0.950667 0.172842 0.257600
vn -0.946474 -0.172106 -0.273069
vn -0.960467 0.082091 -0.266015
vn -0.960467 0.082091 0.266015
vn -0.946474 -0.172106 0.273069
vn -0.907189 0.320840 -0.272158
vn -0.907189 0.320840 0.272158
vn -0.748999 0.604094 -0.272160
vn -0.748999 0.604094 0.272160
vn -0.573672 0.774685 -0.266013
vn -0.573673 0.774685 0.266013
vn -0.427611 0.863796 -0.266468
vn -0.427611 0.863796 0.266468
vn -0.175806 0.945707 -0.273368
vn -0.175806 0.945707 0.273368
vn 0.175089 0.945841 -0.273367
vn 0.175089 0.945841 0.273366
vn 0.426969 0.864114 -0.266465
vn 0.426969 0.864115 0.266465
vn 0.637311 0.720844 -0.272429
vn 0.637311 0.720844 0.272429
vn 0.903010 0.316588 -0.290420
vn 0.903011 0.316589 0.290420
vn 0.903109 -0.316287 -0.290442
vn 0.903109 -0.316287 0.290441
vn 0.637509 -0.720664 -0.272444
vn 0.637509 -0.720664 0.272444
vn 0.349496 -0.896266 -0.273056
vn 0.349496 -0.896266 0.273056
vn -0.151227 -0.944288 -0.292318
vn -0.151227 -0.944288 0.292318
vn -0.724911 -0.623735 -0.292335
vn -0.724911 -0.623735 0.292335
vn -0.903160 -0.316153 -0.290429
vn -0.902986 0.316651 -0.290430
vn -0.902986 0.316651 0.290429
vn -0.903160 -0.316153 0.290429
vn -0.637356 0.720800 -0.272441
vn -0.637356 0.720800 0.272441
vn -0.349361 0.896315 -0.273067
vn -0.349361 0.896315 0.273067
vn 0.151239 0.944290 -0.292308
vn 0.151239 0.944290 0.292308
vn 0.724829 0.623842 -0.292309
vn 0.724829 0.623842 0.292309
vn 0.946426 0.172399 -0.273052
vn 0.946426 0.172399 0.273052
vn 0.946529 -0.171814 -0.273061
vn 0.946529 -0.171814 0.273061
vn 0.725004 -0.623625 -0.292338
vn 0.725004 -0.623625 0.292337
vn 0.151121 -0.944299 -0.292337
vn 0.151121 -0.944299 0.292337
vn -0.349760 -0.896161 -0.273062
vn -0.349760 -0.896161 0.273062
vn -0.637748 -0.720459 -0.272426
vn -0.637748 -0.720459 0.272426
vn -0.688311 -0.592218 0.418935
vn -0.143589 -0.896590 0.418937
vn 0.188251 -0.482763 0.855278
vn -0.377205 0.762953 -0.524995
vn -0.194259 0.498308 -0.844957
vn 0.088523 0.552483 -0.828810
vn 0.424163 0.364907 -0.828811
vn 0.526206 0.095670 -0.844958
vn 0.514755 -0.044069 -0.856204
vn 0.502427 -0.177954 -0.846108
vn 0.414585 -0.334994 -0.846108
vn 0.306949 -0.415569 -0.856203
vn 0.229282 -0.464588 -0.855329
vn 0.097392 -0.526487 -0.844587
vn -0.097686 -0.526433 -0.844586
vn -0.229544 -0.464456 -0.855330
vn -0.307155 -0.415403 -0.856210
vn -0.414683 -0.334841 -0.846120
vn -0.502431 -0.177889 -0.846120
vn -0.514744 -0.044090 -0.856210
vn -0.526216 0.095619 -0.844958
vn -0.424204 0.364859 -0.828812
vn -0.088591 0.552473 -0.828809
vn 0.152891 0.392330 -0.907029
vn -0.217189 -0.556487 -0.801967
vn 0.143491 -0.896619 0.418909
vn 0.688398 -0.592135 0.418908
vn 0.875574 -0.158933 0.456190
vn 0.875464 0.159471 0.456214
vn 0.688209 0.592323 0.418953
vn 0.143596 0.896581 0.418953
vn -0.323176 0.829112 0.456214
vn -0.588904 0.666018 0.457834
vn -0.855568 0.300004 0.421901
vn -0.855734 -0.299532 0.421901
vn -0.589270 -0.665694 0.457834
vn 0.389683 0.788435 0.475938
vn 0.162257 0.875361 0.455430
vn -0.162367 0.875340 0.455430
vn 0.589062 -0.665885 0.457825
vn 0.855686 -0.299696 0.421882
vn 0.855587 0.299964 0.421891
vn 0.588871 0.666055 0.457823
vn 0.389598 0.788482 0.475931
vn 0.162052 0.875408 0.455413
vn -0.162713 0.875284 0.455414
vn -0.390185 0.788194 0.475927
vn -0.522863 0.706071 0.477575
vn -0.691729 0.557903 0.458536
vn -0.837821 0.296307 0.458539
vn -0.875401 0.074821 0.477572
vn -0.875516 -0.159211 0.456206
vn -0.688311 -0.592217 -0.418935
vn -0.875516 -0.159211 -0.456206
vn -0.875401 0.074821 -0.477572
vn -0.837821 0.296307 -0.458539
vn -0.691729 0.557903 -0.458536
vn -0.522863 0.706072 -0.477574
vn -0.390185 0.788193 -0.475927
vn -0.162713 0.875285 -0.455414
vn 0.162052 0.875408 -0.455412
vn 0.389598 0.788482 -0.475931
vn 0.588871 0.666055 -0.457823
vn 0.855587 0.299964 -0.421891
vn 0.855686 -0.299696 -0.421882
vn 0.589062 -0.665885 -0.457825
vn 0.308043 -0.789964 0.530156
vn -0.224791 0.454673 -0.861824
vn -0.162367 0.875340 -0.455430
vn 0.162257 0.875361 -0.455430
vn 0.389683 0.788435 -0.475938
vn 0.256036 0.657007 0.709075
vn -0.129043 -0.330638 0.934894
vn -0.589270 -0.665694 -0.457834
vn -0.855734 -0.299532 -0.421901
vn -0.855568 0.300004 -0.421901
vn -0.588904 0.666018 -0.457834
vn -0.323176 0.829112 -0.456213
vn 0.143596 0.896581 -0.418953
vn 0.688209 0.592323 -0.418953
vn 0.875464 0.159471 -0.456214
vn 0.875574 -0.158933 -0.456191
vn 0.688398 -0.592135 -0.418908
vn 0.143491 -0.896619 -0.418909
vn -0.088591 0.552473 0.828809
vn -0.424204 0.364859 0.828812
vn -0.526216 0.095619 0.844958
vn -0.514744 -0.044090 0.856210
vn -0.502431 -0.177889 0.846120
vn -0.414684 -0.334841 0.846120
vn -0.307155 -0.415403 0.856210
vn -0.229545 -0.464456 0.855330
vn -0.097686 -0.526434 0.844586
vn 0.097392 -0.526487 0.844586
vn 0.229282 -0.464589 0.855329
vn 0.306949 -0.415569 0.856203
vn 0.414585 -0.334995 0.846108
vn 0.502427 -0.177954 0.846108
vn 0.514756 -0.044069 0.856204
vn 0.526207 0.095670 0.844958
vn 0.424163 0.364907 0.828811
vn 0.088523 0.552483 0.828810
vn -0.194259 0.498308 0.844957
vn -0.143589 -0.896590 -0.418937
# 208 vertex normals

o BWS_obj001
g BWS_obj001
usemtl Material__25
s 1
f -208//-208 -207//-207 -183//-206 -184//-205 
s 3
f -207//-207 -206//-204 -182//-203 -183//-206 
s 2
f -206//-204 -205//-202 -181//-201 -182//-203 
f -205//-202 -204//-200 -180//-199 -181//-201 
f -204//-200 -203//-198 -179//-197 -180//-199 
f -203//-198 -202//-196 -178//-195 -179//-197 
f -202//-196 -201//-194 -177//-193 -178//-195 
f -201//-194 -200//-192 -176//-191 -177//-193 
f -200//-192 -199//-190 -175//-189 -176//-191 
f -199//-190 -198//-188 -174//-187 -175//-189 
f -198//-188 -197//-186 -173//-185 -174//-187 
f -197//-186 -196//-184 -172//-183 -173//-185 
f -196//-184 -195//-182 -171//-181 -172//-183 
f -195//-182 -194//-180 -170//-179 -171//-181 
f -194//-180 -193//-178 -169//-177 -170//-179 
f -193//-178 -192//-176 -168//-175 -169//-177 
f -192//-176 -191//-174 -167//-173 -168//-175 
f -191//-174 -190//-172 -166//-171 -167//-173 
f -190//-172 -189//-170 -165//-169 -166//-171 
f -189//-170 -188//-168 -164//-167 -165//-169 
f -188//-168 -187//-166 -163//-165 -164//-167 
f -187//-166 -186//-164 -162//-163 -163//-165 
f -186//-164 -185//-162 -161//-161 -162//-163 
s 3
f -185//-162 -208//-208 -184//-205 -161//-161 
s 1
f -160//-160 -159//-159 -143//-158 -144//-157 
s 3
f -159//-159 -158//-156 -142//-155 -143//-158 
s 2
f -158//-156 -157//-154 -141//-153 -142//-155 
f -157//-154 -156//-152 -140//-151 -141//-153 
f -156//-152 -155//-150 -139//-149 -140//-151 
f -155//-150 -154//-148 -138//-147 -139//-149 
f -154//-148 -153//-146 -137//-145 -138//-147 
f -153//-146 -152//-144 -136//-143 -137//-145 
f -152//-144 -151//-142 -135//-141 -136//-143 
f -151//-142 -150//-140 -134//-139 -135//-141 
f -150//-140 -149//-138 -133//-137 -134//-139 
f -149//-138 -148//-136 -132//-135 -133//-137 
f -148//-136 -147//-134 -131//-133 -132//-135 
f -147//-134 -146//-132 -130//-131 -131//-133 
f -146//-132 -145//-130 -129//-129 -130//-131 
s 3
f -145//-130 -160//-160 -144//-157 -129//-129 
s 1
f -128//-128 -127//-127 -115//-126 -116//-125 
s 3
f -127//-127 -126//-124 -114//-123 -115//-126 
s 2
f -126//-124 -125//-122 -113//-121 -114//-123 
f -125//-122 -124//-120 -112//-119 -113//-121 
f -124//-120 -123//-118 -111//-117 -112//-119 
f -123//-118 -122//-116 -110//-115 -111//-117 
f -122//-116 -121//-114 -109//-113 -110//-115 
f -121//-114 -120//-112 -108//-111 -109//-113 
f -120//-112 -119//-110 -107//-109 -108//-111 
f -119//-110 -118//-108 -106//-107 -107//-109 
f -118//-108 -117//-106 -105//-105 -106//-107 
s 3
f -117//-106 -128//-128 -116//-125 -105//-105 
s 16
f -78//-104 -77//-103 -76//-102 -82//-101 -81//-100 -104//-99 -103//-98 -102//-97 -101//-96 -100//-95 -99//-94 -98//-93 -97//-92 -96//-91 -95//-90 -94//-89 -93//-88 -92//-87 -91//-86 -90//-85 -89//-84 -88//-83 -87//-82 -86//-81 -61//-80 -60//-79 -59//-78 -58//-77 -57//-76 -56//-75 -55//-74 -54//-73 -53//-72 -64//-71 -63//-70 -62//-69 -61//-80 -86//-81 -85//-68 -84//-67 -83//-66 -82//-101 -76//-102 -75//-65 -74//-64 -73//-63 -72//-62 -71//-61 -70//-60 -69//-59 -68//-58 -67//-57 -66//-56 -65//-55 -80//-54 -79//-53 
f -13//-52 -28//-51 -27//-50 -26//-49 -25//-48 -24//-47 -23//-46 -22//-45 -21//-44 -20//-43 -19//-42 -18//-41 -17//-40 -16//-39 -15//-38 -49//-37 -48//-36 -47//-35 -46//-34 -45//-33 -2//-32 -1//-31 -12//-30 -11//-29 -10//-28 -9//-27 -8//-26 -7//-25 -6//-24 -5//-23 -4//-22 -3//-21 -2//-32 -45//-33 -44//-20 -43//-19 -42//-18 -41//-17 -40//-16 -39//-15 -38//-14 -37//-13 -36//-12 -35//-11 -34//-10 -33//-9 -32//-8 -31//-7 -30//-6 -29//-5 -52//-4 -51//-3 -50//-2 -49//-37 -15//-38 -14//-1 
s off
f -207//-207 -208//-208 -103//-98 -104//-99 
f -208//-208 -185//-162 -102//-97 -103//-98 
f -185//-162 -186//-164 -101//-96 -102//-97 
f -186//-164 -187//-166 -100//-95 -101//-96 
f -187//-166 -188//-168 -99//-94 -100//-95 
f -188//-168 -189//-170 -98//-93 -99//-94 
f -189//-170 -190//-172 -97//-92 -98//-93 
f -190//-172 -191//-174 -96//-91 -97//-92 
f -191//-174 -192//-176 -95//-90 -96//-91 
f -192//-176 -193//-178 -94//-89 -95//-90 
f -193//-178 -194//-180 -93//-88 -94//-89 
f -194//-180 -195//-182 -92//-87 -93//-88 
f -195//-182 -196//-184 -91//-86 -92//-87 
f -196//-184 -197//-186 -90//-85 -91//-86 
f -197//-186 -198//-188 -89//-84 -90//-85 
f -198//-188 -199//-190 -88//-83 -89//-84 
f -199//-190 -200//-192 -87//-82 -88//-83 
f -200//-192 -201//-194 -86//-81 -87//-82 
f -201//-194 -202//-196 -85//-68 -86//-81 
f -202//-196 -203//-198 -84//-67 -85//-68 
f -203//-198 -204//-200 -83//-66 -84//-67 
f -204//-200 -205//-202 -82//-101 -83//-66 
f -205//-202 -206//-204 -81//-100 -82//-101 
f -206//-204 -207//-207 -104//-99 -81//-100 
f -159//-159 -160//-160 -79//-53 -80//-54 
f -160//-160 -145//-130 -78//-104 -79//-53 
f -145//-130 -146//-132 -77//-103 -78//-104 
f -146//-132 -147//-134 -76//-102 -77//-103 
f -147//-134 -148//-136 -75//-65 -76//-102 
f -148//-136 -149//-138 -74//-64 -75//-65 
f -149//-138 -150//-140 -73//-63 -74//-64 
f -150//-140 -151//-142 -72//-62 -73//-63 
f -151//-142 -152//-144 -71//-61 -72//-62 
f -152//-144 -153//-146 -70//-60 -71//-61 
f -153//-146 -154//-148 -69//-59 -70//-60 
f -154//-148 -155//-150 -68//-58 -69//-59 
f -155//-150 -156//-152 -67//-57 -68//-58 
f -156//-152 -157//-154 -66//-56 -67//-57 
f -157//-154 -158//-156 -65//-55 -66//-56 
f -158//-156 -159//-159 -80//-54 -65//-55 
f -127//-127 -128//-128 -63//-70 -64//-71 
f -128//-128 -117//-106 -62//-69 -63//-70 
f -117//-106 -118//-108 -61//-80 -62//-69 
f -118//-108 -119//-110 -60//-79 -61//-80 
f -119//-110 -120//-112 -59//-78 -60//-79 
f -120//-112 -121//-114 -58//-77 -59//-78 
f -121//-114 -122//-116 -57//-76 -58//-77 
f -122//-116 -123//-118 -56//-75 -57//-76 
f -123//-118 -124//-120 -55//-74 -56//-75 
f -124//-120 -125//-122 -54//-73 -55//-74 
f -125//-122 -126//-124 -53//-72 -54//-73 
f -126//-124 -127//-127 -64//-71 -53//-72 
f -184//-205 -183//-206 -51//-3 -52//-4 
f -183//-206 -182//-203 -50//-2 -51//-3 
f -182//-203 -181//-201 -49//-37 -50//-2 
f -181//-201 -180//-199 -48//-36 -49//-37 
f -180//-199 -179//-197 -47//-35 -48//-36 
f -179//-197 -178//-195 -46//-34 -47//-35 
f -178//-195 -177//-193 -45//-33 -46//-34 
f -177//-193 -176//-191 -44//-20 -45//-33 
f -176//-191 -175//-189 -43//-19 -44//-20 
f -175//-189 -174//-187 -42//-18 -43//-19 
f -174//-187 -173//-185 -41//-17 -42//-18 
f -173//-185 -172//-183 -40//-16 -41//-17 
f -172//-183 -171//-181 -39//-15 -40//-16 
f -171//-181 -170//-179 -38//-14 -39//-15 
f -170//-179 -169//-177 -37//-13 -38//-14 
f -169//-177 -168//-175 -36//-12 -37//-13 
f -168//-175 -167//-173 -35//-11 -36//-12 
f -167//-173 -166//-171 -34//-10 -35//-11 
f -166//-171 -165//-169 -33//-9 -34//-10 
f -165//-169 -164//-167 -32//-8 -33//-9 
f -164//-167 -163//-165 -31//-7 -32//-8 
f -163//-165 -162//-163 -30//-6 -31//-7 
f -162//-163 -161//-161 -29//-5 -30//-6 
f -161//-161 -184//-205 -52//-4 -29//-5 
f -144//-157 -143//-158 -27//-50 -28//-51 
f -143//-158 -142//-155 -26//-49 -27//-50 
f -142//-155 -141//-153 -25//-48 -26//-49 
f -141//-153 -140//-151 -24//-47 -25//-48 
f -140//-151 -139//-149 -23//-46 -24//-47 
f -139//-149 -138//-147 -22//-45 -23//-46 
f -138//-147 -137//-145 -21//-44 -22//-45 
f -137//-145 -136//-143 -20//-43 -21//-44 
f -136//-143 -135//-141 -19//-42 -20//-43 
f -135//-141 -134//-139 -18//-41 -19//-42 
f -134//-139 -133//-137 -17//-40 -18//-41 
f -133//-137 -132//-135 -16//-39 -17//-40 
f -132//-135 -131//-133 -15//-38 -16//-39 
f -131//-133 -130//-131 -14//-1 -15//-38 
f -130//-131 -129//-129 -13//-52 -14//-1 
f -129//-129 -144//-157 -28//-51 -13//-52 
f -116//-125 -115//-126 -11//-29 -12//-30 
f -115//-126 -114//-123 -10//-28 -11//-29 
f -114//-123 -113//-121 -9//-27 -10//-28 
f -113//-121 -112//-119 -8//-26 -9//-27 
f -112//-119 -111//-117 -7//-25 -8//-26 
f -111//-117 -110//-115 -6//-24 -7//-25 
f -110//-115 -109//-113 -5//-23 -6//-24 
f -109//-113 -108//-111 -4//-22 -5//-23 
f -108//-111 -107//-109 -3//-21 -4//-22 
f -107//-109 -106//-107 -2//-32 -3//-21 
f -106//-107 -105//-105 -1//-31 -2//-32 
f -105//-105 -116//-125 -12//-30 -1//-31 
# 158 polygons

